<mxfile host="app.diagrams.net" modified="2024-10-22T12:10:32.800Z" agent="Mozilla/5.0 (Windows NT 10.0; Win64; x64) AppleWebKit/537.36 (KHTML, like Gecko) Chrome/129.0.0.0 Safari/537.36" version="24.5.4" etag="TbiB6BzDndSD4yJ8-X0I" type="github">
  <diagram name="ページ1" id="MvaRZt7J48CVcU-7Gl5t">
    <mxGraphModel>
      <root>
        <mxCell id="0" />
        <mxCell id="1" parent="0" />
      </root>
    </mxGraphModel>
  </diagram>
</mxfile>
